<svg width="16" height="31" viewBox="0 0 16 31" fill="none" xmlns="http://www.w3.org/2000/svg">
<path d="M15.3975 0.00645007L11.5598 0C7.24832 0 4.46205 2.99444 4.46205 7.62914V11.1467H0.603437C0.270007 11.1467 0 11.4298 0 11.7791V16.8756C0 17.2249 0.270315 17.5077 0.603437 17.5077H4.46205V30.3679C4.46205 30.7172 4.73205 31 5.06548 31H10.0999C10.4333 31 10.7033 30.7168 10.7033 30.3679V17.5077H15.2149C15.5483 17.5077 15.8184 17.2249 15.8184 16.8756L15.8202 11.7791C15.8202 11.6114 15.7565 11.4508 15.6435 11.3321C15.5305 11.2134 15.3766 11.1467 15.2165 11.1467H10.7033V8.16482C10.7033 6.73161 11.0293 6.00405 12.8116 6.00405L15.3969 6.00308C15.73 6.00308 16 5.71992 16 5.37097V0.638557C16 0.289931 15.7303 0.00709508 15.3975 0.00645007Z" fill="white"/>
</svg>
