<svg width="30" height="27" viewBox="0 0 30 27" fill="none" xmlns="http://www.w3.org/2000/svg">
<path d="M30 3.88884C28.8958 4.39441 27.7111 4.73729 26.4663 4.89036C27.7373 4.10386 28.7103 2.85637 29.1714 1.37444C27.9791 2.10279 26.6631 2.63167 25.2608 2.91837C24.138 1.68054 22.5407 0.909546 20.7692 0.909546C17.3705 0.909546 14.6147 3.75714 14.6147 7.26723C14.6147 7.76505 14.6691 8.25128 14.7741 8.71623C9.66006 8.4508 5.12531 5.91898 2.09026 2.07179C1.55972 3.00939 1.2579 4.10189 1.2579 5.26808C1.2579 7.4745 2.34521 9.42132 3.99491 10.5603C2.98634 10.5255 2.03776 10.2388 1.20732 9.76222V9.84165C1.20732 12.9217 3.32942 15.4923 6.14325 16.0773C5.62771 16.2207 5.08408 16.3001 4.52168 16.3001C4.12428 16.3001 3.73996 16.2594 3.36315 16.1819C4.14673 18.7099 6.41884 20.5482 9.11085 20.5986C7.0056 22.3033 4.35109 23.3164 1.4679 23.3164C0.97114 23.3164 0.481826 23.2854 6.10352e-05 23.2292C2.72393 25.0366 5.95771 26.0904 9.4333 26.0904C20.7543 26.0904 26.9425 16.4008 26.9425 7.99755L26.9219 7.17428C28.131 6.28313 29.177 5.16349 30 3.88884Z" fill="white"/>
</svg>
